<svg width="3529" height="1352" viewBox="0 0 3529 1352" fill="none" xmlns="http://www.w3.org/2000/svg">
<path d="M63.2102 969V241.727H216.974V541.798H529.119V241.727H682.528V969H529.119V668.574H216.974V969H63.2102ZM2033.03 969V423.545H2179.69V518.716H2185.37C2195.31 484.862 2212 459.294 2235.44 442.011C2258.88 424.492 2285.87 415.733 2316.41 415.733C2323.98 415.733 2332.15 416.206 2340.91 417.153C2349.67 418.1 2357.36 419.402 2363.99 421.06V555.293C2356.89 553.162 2347.06 551.268 2334.52 549.611C2321.97 547.954 2310.49 547.125 2300.07 547.125C2277.82 547.125 2257.93 551.978 2240.41 561.685C2223.13 571.154 2209.4 584.412 2199.22 601.457C2189.28 618.503 2184.3 638.152 2184.3 660.406V969H2033.03ZM2582.12 979.298C2547.32 979.298 2516.31 973.261 2489.08 961.188C2461.85 948.877 2440.31 930.766 2424.45 906.855C2408.82 882.707 2401.01 852.641 2401.01 816.656C2401.01 786.353 2406.58 760.903 2417.7 740.307C2428.83 719.71 2443.98 703.138 2463.16 690.591C2482.33 678.044 2504.11 668.574 2528.5 662.182C2553.12 655.79 2578.92 651.292 2605.91 648.688C2637.64 645.373 2663.2 642.295 2682.62 639.455C2702.03 636.377 2716.12 631.879 2724.88 625.96C2733.64 620.042 2738.01 611.282 2738.01 599.682V597.551C2738.01 575.061 2730.91 557.66 2716.71 545.349C2702.74 533.039 2682.85 526.884 2657.05 526.884C2629.82 526.884 2608.16 532.92 2592.06 544.994C2575.96 556.831 2565.31 571.746 2560.1 589.739L2420.19 578.375C2427.29 545.231 2441.26 516.585 2462.09 492.438C2482.92 468.053 2509.8 449.35 2542.7 436.33C2575.85 423.072 2614.2 416.443 2657.76 416.443C2688.06 416.443 2717.06 419.994 2744.76 427.097C2772.7 434.199 2797.44 445.207 2818.98 460.122C2840.76 475.037 2857.92 494.213 2870.47 517.651C2883.02 540.851 2889.29 568.669 2889.29 601.102V969H2745.83V893.361H2741.57C2732.81 910.406 2721.09 925.439 2706.41 938.46C2691.73 951.244 2674.09 961.306 2653.5 968.645C2632.9 975.747 2609.11 979.298 2582.12 979.298ZM2625.44 874.895C2647.7 874.895 2667.35 870.515 2684.39 861.756C2701.44 852.759 2714.81 840.686 2724.52 825.534C2734.23 810.383 2739.08 793.219 2739.08 774.043V716.159C2734.35 719.237 2727.84 722.078 2719.55 724.682C2711.5 727.049 2702.39 729.298 2692.21 731.429C2682.03 733.323 2671.85 735.098 2661.67 736.756C2651.49 738.176 2642.25 739.478 2633.97 740.662C2616.21 743.266 2600.7 747.409 2587.45 753.091C2574.19 758.773 2563.89 766.467 2556.55 776.173C2549.21 785.643 2545.54 797.48 2545.54 811.685C2545.54 832.281 2553 848.025 2567.92 858.915C2583.07 869.568 2602.24 874.895 2625.44 874.895ZM3143.73 812.04L3144.09 630.577H3166.1L3340.82 423.545H3514.47L3279.74 697.693H3243.87L3143.73 812.04ZM3006.66 969V241.727H3157.94V969H3006.66ZM3347.57 969L3187.06 731.429L3287.91 624.54L3524.77 969H3347.57Z" fill="#36454F"/>
<path d="M1325.5 952H1113C1043.83 952 984.875 927.625 936.125 878.875C887.375 830.125 863 771.167 863 702C863 632.833 887.375 573.875 936.125 525.125C984.875 476.375 1043.83 452 1113 452H1325.5V527H1113C1064.39 527 1023.07 543.985 989.041 577.956C955.014 611.926 938 653.176 938 701.706C938 750.235 955.014 791.583 989.041 825.75C1023.07 859.917 1064.39 877 1113 877H1325.5V952ZM1169.25 739.5V664.5H1556.75V739.5H1169.25ZM1400.5 952V877H1613C1661.61 877 1702.93 860.015 1736.96 826.044C1770.99 792.074 1788 750.824 1788 702.294C1788 653.765 1770.99 612.417 1736.96 578.25C1702.93 544.083 1661.61 527 1613 527H1400.5V452H1613C1682.17 452 1741.12 476.375 1789.88 525.125C1838.62 573.875 1863 632.833 1863 702C1863 771.167 1838.62 830.125 1789.88 878.875C1741.12 927.625 1682.17 952 1613 952H1400.5Z" fill="#BE0000"/>
</svg>
